<?xml version="1.0" encoding="utf-8"?>
<!-- Generator: Adobe Illustrator 28.3.0, SVG Export Plug-In . SVG Version: 6.00 Build 0)  -->
<svg version="1.1" id="Layer_1" xmlns="http://www.w3.org/2000/svg" xmlns:xlink="http://www.w3.org/1999/xlink" x="0px" y="0px"
	 viewBox="0 0 16 16" style="enable-background:new 0 0 16 16;" xml:space="preserve">
<style type="text/css">
	.st0{fill:#A5A4BF;}
</style>
<g>
	<path class="st0" d="M3.5,16h-3C0.2,16,0,15.8,0,15.5v-4C0,11.2,0.2,11,0.5,11h3C3.8,11,4,11.2,4,11.5v4C4,15.8,3.8,16,3.5,16z"/>
</g>
<g>
	<path class="st0" d="M9.5,16h-3C6.2,16,6,15.8,6,15.5v-15C6,0.2,6.2,0,6.5,0h3C9.8,0,10,0.2,10,0.5v15C10,15.8,9.8,16,9.5,16z"/>
</g>
<g>
	<path class="st0" d="M15.4,16h-2.9c-0.3,0-0.6-0.3-0.6-0.6V6.6C12,6.3,12.3,6,12.6,6h2.9C15.7,6,16,6.3,16,6.6v8.9
		C16,15.7,15.7,16,15.4,16z"/>
</g>
</svg>
